<svg width="36" height="36" viewBox="0 0 36 36" fill="none" xmlns="http://www.w3.org/2000/svg">
<g filter="url(#filter0_d_724_9611)">
<rect x="2" width="32" height="32" rx="8" fill="url(#paint0_linear_724_9611)"/>
<rect x="10" y="6.66675" width="16.6667" height="16.6667" rx="8.33333" fill="white"/>
<path d="M26.6668 25.3335L22.4446 21.4446L26.6668 21.7779V25.3335Z" fill="white"/>
<path d="M21.1547 18.8889C21.1547 18.8889 20.8095 18.4794 20.5218 18.1175C21.778 17.7651 22.2574 16.9842 22.2574 16.9842C21.8643 17.2413 21.4903 17.4223 21.1547 17.5461C20.6752 17.7461 20.215 17.8794 19.7643 17.9556C18.8437 18.127 17.9999 18.0794 17.2807 17.9461C16.7341 17.8413 16.2643 17.6889 15.8711 17.5366C15.6506 17.4508 15.4108 17.3461 15.1711 17.2128C15.1423 17.1937 15.1136 17.1842 15.0848 17.1651C15.0656 17.1556 15.056 17.1461 15.0465 17.1366C14.8738 17.0413 14.778 16.9746 14.778 16.9746C14.778 16.9746 15.2382 17.7366 16.456 18.0984C16.1684 18.4604 15.8136 18.8889 15.8136 18.8889C13.6944 18.8222 12.8889 17.4413 12.8889 17.4413C12.8889 14.3747 14.2697 11.889 14.2697 11.889C15.6506 10.8604 16.9643 10.889 16.9643 10.889L17.0602 11.0033C15.3341 11.4985 14.5382 12.2509 14.5382 12.2509C14.5382 12.2509 14.7492 12.1366 15.104 11.9747C16.13 11.5271 16.9451 11.4033 17.2807 11.3747C17.3382 11.3652 17.3862 11.3557 17.4437 11.3557C18.0286 11.2795 18.6903 11.2604 19.3807 11.3366C20.2916 11.4414 21.2698 11.708 22.267 12.2509C22.267 12.2509 21.5095 11.5366 19.8793 11.0414L20.0136 10.889C20.0136 10.889 21.3273 10.8604 22.7081 11.889C22.7081 11.889 24.0889 14.3747 24.0889 17.4413C24.0889 17.4413 23.2738 18.8222 21.1547 18.8889ZM16.6958 14.4413C16.1492 14.4413 15.7177 14.9175 15.7177 15.4985C15.7177 16.0794 16.1588 16.5556 16.6958 16.5556C17.2424 16.5556 17.6738 16.0794 17.6738 15.4985C17.6834 14.9175 17.2424 14.4413 16.6958 14.4413ZM20.1958 14.4413C19.6492 14.4413 19.2177 14.9175 19.2177 15.4985C19.2177 16.0794 19.6588 16.5556 20.1958 16.5556C20.7424 16.5556 21.1738 16.0794 21.1738 15.4985C21.1738 14.9175 20.7424 14.4413 20.1958 14.4413Z" fill="url(#paint1_linear_724_9611)"/>
</g>
<defs>
<filter id="filter0_d_724_9611" x="0" y="0" width="36" height="36" filterUnits="userSpaceOnUse" color-interpolation-filters="sRGB">
<feFlood flood-opacity="0" result="BackgroundImageFix"/>
<feColorMatrix in="SourceAlpha" type="matrix" values="0 0 0 0 0 0 0 0 0 0 0 0 0 0 0 0 0 0 127 0" result="hardAlpha"/>
<feOffset dy="2"/>
<feGaussianBlur stdDeviation="1"/>
<feComposite in2="hardAlpha" operator="out"/>
<feColorMatrix type="matrix" values="0 0 0 0 0 0 0 0 0 0 0 0 0 0 0 0 0 0 0.08 0"/>
<feBlend mode="normal" in2="BackgroundImageFix" result="effect1_dropShadow_724_9611"/>
<feBlend mode="normal" in="SourceGraphic" in2="effect1_dropShadow_724_9611" result="shape"/>
</filter>
<linearGradient id="paint0_linear_724_9611" x1="15.5385" y1="1.35703e-06" x2="32.8034" y2="15.3525" gradientUnits="userSpaceOnUse">
<stop offset="0.046875" stop-color="#35B6FF"/>
<stop offset="1" stop-color="#1B84D7"/>
</linearGradient>
<linearGradient id="paint1_linear_724_9611" x1="17.6274" y1="10.8889" x2="21.8712" y2="16.1721" gradientUnits="userSpaceOnUse">
<stop offset="0.046875" stop-color="#35B6FF"/>
<stop offset="1" stop-color="#1B84D7"/>
</linearGradient>
</defs>
</svg>
