<svg width="36" height="36" viewBox="0 0 36 36" fill="none" xmlns="http://www.w3.org/2000/svg">
<g filter="url(#filter0_d_724_9609)">
<rect x="2" width="32" height="32" rx="8" fill="url(#paint0_linear_724_9609)"/>
<path d="M9.48051 16.2998L13.159 17.6715L14.593 22.2851C14.6553 22.5969 15.0294 22.6592 15.2788 22.4722L17.3362 20.7888C17.5233 20.6018 17.835 20.6018 18.0844 20.7888L21.7628 23.4697C22.0122 23.6568 22.3863 23.5321 22.4487 23.2203L25.1919 10.1275C25.2543 9.81578 24.9425 9.50404 24.6308 9.62874L9.48051 15.4893C9.10643 15.614 9.10643 16.1752 9.48051 16.2998ZM14.4059 16.9857L21.6381 12.559C21.7628 12.4967 21.8875 12.6837 21.7628 12.7461L15.8399 18.295C15.6529 18.482 15.4658 18.7314 15.4658 19.0431L15.2788 20.5394C15.2788 20.7265 14.967 20.7888 14.9047 20.5394L14.1565 17.7962C13.9695 17.4844 14.0942 17.1104 14.4059 16.9857Z" fill="white"/>
</g>
<defs>
<filter id="filter0_d_724_9609" x="0" y="0" width="36" height="36" filterUnits="userSpaceOnUse" color-interpolation-filters="sRGB">
<feFlood flood-opacity="0" result="BackgroundImageFix"/>
<feColorMatrix in="SourceAlpha" type="matrix" values="0 0 0 0 0 0 0 0 0 0 0 0 0 0 0 0 0 0 127 0" result="hardAlpha"/>
<feOffset dy="2"/>
<feGaussianBlur stdDeviation="1"/>
<feComposite in2="hardAlpha" operator="out"/>
<feColorMatrix type="matrix" values="0 0 0 0 0 0 0 0 0 0 0 0 0 0 0 0 0 0 0.08 0"/>
<feBlend mode="normal" in2="BackgroundImageFix" result="effect1_dropShadow_724_9609"/>
<feBlend mode="normal" in="SourceGraphic" in2="effect1_dropShadow_724_9609" result="shape"/>
</filter>
<linearGradient id="paint0_linear_724_9609" x1="15.5385" y1="1.35703e-06" x2="32.8034" y2="15.3525" gradientUnits="userSpaceOnUse">
<stop offset="0.046875" stop-color="#35B6FF"/>
<stop offset="1" stop-color="#1B84D7"/>
</linearGradient>
</defs>
</svg>
