<svg width="132" height="20" viewBox="0 0 132 20" fill="none" xmlns="http://www.w3.org/2000/svg">
<path d="M0 6.66687L3.99997 0.000244141V13.3335L0 20.0001V6.66687Z" fill="url(#paint0_linear_999_18099)"/>
<path d="M6.66662 16H19.9999L13.3332 20H0L6.66662 16Z" fill="url(#paint1_linear_999_18099)"/>
<path d="M6 6.00024L10.6666 6.00024V6.00024C10.6666 7.84118 12.159 9.33356 13.9999 9.33356V9.33356L13.9999 14L6 14L6 6.00024Z" fill="#8958C2"/>
<circle cx="13.334" cy="6.66701" r="1.99999" transform="rotate(-180 13.334 6.66701)" fill="white"/>
<path d="M20 16L16.6667 16L16.6667 3.33342L4.0001 3.33342L4.0001 0.000103823L16 0.000104872C18.2091 0.000105065 20 1.79097 20 4.00011L20 16Z" fill="url(#paint2_linear_999_18099)"/>
<path d="M40.064 15.5L40.048 7.34L36 14.14H35.264L31.216 7.388V15.5H29.68V4.3H30.992L35.664 12.172L40.272 4.3H41.584L41.6 15.5H40.064ZM44.9613 4.3H46.5613V15.5H44.9613V4.3ZM59.5464 4.3V15.5H58.2344L51.5144 7.148V15.5H49.9144V4.3H51.2264L57.9464 12.652V4.3H59.5464ZM71.0268 14.108V15.5H62.8988V4.3H70.8028V5.692H64.4988V9.132H70.1148V10.492H64.4988V14.108H71.0268ZM81.1055 15.5L78.6895 12.06C78.3908 12.0813 78.1562 12.092 77.9855 12.092H75.2175V15.5H73.6175V4.3H77.9855C79.4362 4.3 80.5775 4.64667 81.4095 5.34C82.2415 6.03333 82.6575 6.988 82.6575 8.204C82.6575 9.068 82.4442 9.804 82.0175 10.412C81.5908 11.02 80.9828 11.4627 80.1935 11.74L82.8495 15.5H81.1055ZM77.9375 10.732C78.9508 10.732 79.7242 10.5133 80.2575 10.076C80.7908 9.63867 81.0575 9.01467 81.0575 8.204C81.0575 7.39333 80.7908 6.77467 80.2575 6.348C79.7242 5.91067 78.9508 5.692 77.9375 5.692H75.2175V10.732H77.9375Z" fill="white"/>
<path d="M89.6105 4.3C91.0612 4.3 92.2025 4.64667 93.0345 5.34C93.8665 6.03333 94.2825 6.988 94.2825 8.204C94.2825 9.42 93.8665 10.3747 93.0345 11.068C92.2025 11.7613 91.0612 12.108 89.6105 12.108H86.8425V15.5H85.2425V4.3H89.6105ZM89.5625 10.716C90.5758 10.716 91.3492 10.5027 91.8825 10.076C92.4158 9.63867 92.6825 9.01467 92.6825 8.204C92.6825 7.39333 92.4158 6.77467 91.8825 6.348C91.3492 5.91067 90.5758 5.692 89.5625 5.692H86.8425V10.716H89.5625ZM101.845 15.628C100.715 15.628 99.696 15.3827 98.7894 14.892C97.8827 14.3907 97.168 13.7027 96.6454 12.828C96.1334 11.9533 95.8774 10.9773 95.8774 9.9C95.8774 8.82267 96.1334 7.84667 96.6454 6.972C97.168 6.09733 97.8827 5.41467 98.7894 4.924C99.696 4.42267 100.715 4.172 101.845 4.172C102.965 4.172 103.979 4.42267 104.885 4.924C105.792 5.41467 106.501 6.09733 107.013 6.972C107.525 7.836 107.781 8.812 107.781 9.9C107.781 10.988 107.525 11.9693 107.013 12.844C106.501 13.708 105.792 14.3907 104.885 14.892C103.979 15.3827 102.965 15.628 101.845 15.628ZM101.845 14.204C102.667 14.204 103.403 14.0173 104.053 13.644C104.715 13.2707 105.232 12.7587 105.605 12.108C105.989 11.4467 106.181 10.7107 106.181 9.9C106.181 9.08933 105.989 8.35867 105.605 7.708C105.232 7.04667 104.715 6.52933 104.053 6.156C103.403 5.78267 102.667 5.596 101.845 5.596C101.024 5.596 100.277 5.78267 99.6054 6.156C98.944 6.52933 98.4214 7.04667 98.0374 7.708C97.664 8.35867 97.4774 9.08933 97.4774 9.9C97.4774 10.7107 97.664 11.4467 98.0374 12.108C98.4214 12.7587 98.944 13.2707 99.6054 13.644C100.277 14.0173 101.024 14.204 101.845 14.204ZM115.283 15.628C114.152 15.628 113.134 15.3827 112.227 14.892C111.32 14.3907 110.606 13.7027 110.083 12.828C109.571 11.9533 109.315 10.9773 109.315 9.9C109.315 8.82267 109.571 7.84667 110.083 6.972C110.606 6.09733 111.32 5.41467 112.227 4.924C113.134 4.42267 114.152 4.172 115.283 4.172C116.403 4.172 117.416 4.42267 118.323 4.924C119.23 5.41467 119.939 6.09733 120.451 6.972C120.963 7.836 121.219 8.812 121.219 9.9C121.219 10.988 120.963 11.9693 120.451 12.844C119.939 13.708 119.23 14.3907 118.323 14.892C117.416 15.3827 116.403 15.628 115.283 15.628ZM115.283 14.204C116.104 14.204 116.84 14.0173 117.491 13.644C118.152 13.2707 118.67 12.7587 119.043 12.108C119.427 11.4467 119.619 10.7107 119.619 9.9C119.619 9.08933 119.427 8.35867 119.043 7.708C118.67 7.04667 118.152 6.52933 117.491 6.156C116.84 5.78267 116.104 5.596 115.283 5.596C114.462 5.596 113.715 5.78267 113.043 6.156C112.382 6.52933 111.859 7.04667 111.475 7.708C111.102 8.35867 110.915 9.08933 110.915 9.9C110.915 10.7107 111.102 11.4467 111.475 12.108C111.859 12.7587 112.382 13.2707 113.043 13.644C113.715 14.0173 114.462 14.204 115.283 14.204ZM123.664 4.3H125.264V14.108H131.328V15.5H123.664V4.3Z" fill="url(#paint3_linear_999_18099)"/>
<defs>
<linearGradient id="paint0_linear_999_18099" x1="1.6923" y1="0.000244989" x2="5.4384" y2="0.666475" gradientUnits="userSpaceOnUse">
<stop offset="0.046875" stop-color="#35B6FF"/>
<stop offset="1" stop-color="#1B84D7"/>
</linearGradient>
<linearGradient id="paint1_linear_999_18099" x1="8.46148" y1="16" x2="9.39189" y2="20.1367" gradientUnits="userSpaceOnUse">
<stop offset="0.046875" stop-color="#35B6FF"/>
<stop offset="1" stop-color="#1B84D7"/>
</linearGradient>
<linearGradient id="paint2_linear_999_18099" x1="13.2308" y1="16" x2="4.59838" y2="8.32378" gradientUnits="userSpaceOnUse">
<stop offset="0.046875" stop-color="#35B6FF"/>
<stop offset="1" stop-color="#1B84D7"/>
</linearGradient>
<linearGradient id="paint3_linear_999_18099" x1="72" y1="0.500001" x2="76.0695" y2="20.3075" gradientUnits="userSpaceOnUse">
<stop offset="0.046875" stop-color="#35B6FF"/>
<stop offset="1" stop-color="#1B84D7"/>
</linearGradient>
</defs>
</svg>
