<svg width="60" height="60" viewBox="0 0 60 60" fill="none" xmlns="http://www.w3.org/2000/svg">
<g clip-path="url(#clip0_1003_29895)">
<path d="M54 59.9999H6C2.7 59.9999 0 57.2999 0 53.9999V5.99994C0 2.69994 2.7 -6.10352e-05 6 -6.10352e-05H54C57.3 -6.10352e-05 60 2.69994 60 5.99994V53.9999C60 57.2999 57.3 59.9999 54 59.9999Z" fill="#5767FF"/>
<path d="M37.5 17.5C34.5667 17.5 31.9 18.7167 30 20.6667C28.1 18.7167 25.4333 17.5 22.5 17.5C16.7167 17.5 12 22.2167 12 28V40.5001C12 42.1501 13.35 43.5001 15 43.5001C16.65 43.5001 18 42.1501 18 40.5001V28C18 25.5167 20.0167 23.5 22.5 23.5C24.9833 23.5 27 25.5167 27 28V40.5001C27 42.1501 28.35 43.5001 30 43.5001C31.65 43.5001 33 42.1501 33 40.5001V28C33 25.5167 35.0167 23.5 37.5 23.5C39.9833 23.5 42 25.5167 42 28V40.5001C42 42.1501 43.35 43.5001 45 43.5001C46.65 43.5001 48 42.1501 48 40.5001V28C48 22.2167 43.2833 17.5 37.5 17.5Z" fill="white"/>
</g>
<defs>
<clipPath id="clip0_1003_29895">
<rect width="60" height="60" fill="white"/>
</clipPath>
</defs>
</svg>
