<svg width="60" height="61" viewBox="0 0 60 61" fill="none" xmlns="http://www.w3.org/2000/svg">
<rect x="6" y="6" width="48" height="48.0017" rx="24" fill="white"/>
<path d="M21.7406 38.7605C22.203 38.7605 22.6397 38.5036 22.8453 38.0926L25.7868 32.5049H21.2396C20.546 32.5049 19.9936 31.9397 19.9936 31.2589V28.7541C19.9936 28.0604 20.5588 27.5081 21.2396 27.5081H28.4329L34.0206 16.9236C34.239 16.5125 34.6629 16.2556 35.1253 16.2556H44.5409C40.8928 12.4021 35.7419 10 30.0129 10C18.966 10 10 18.9531 10 30.0129C10 33.1472 10.7193 36.1273 12.0167 38.7734H21.7406V38.7605Z" fill="#D90202"/>
<path d="M38.2593 21.2404C37.7969 21.2404 37.3602 21.4974 37.1546 21.9084L34.2131 27.4961H38.7603C39.4539 27.4961 40.0063 28.0613 40.0063 28.7421V31.2469C40.0063 31.9405 39.4411 32.4929 38.7603 32.4929H31.5669L25.9793 43.0774C25.7609 43.4884 25.337 43.7453 24.8746 43.7453H15.459C19.107 47.5989 24.258 50.001 29.987 50.001C41.0339 50.001 49.9999 41.0478 49.9999 29.9881C49.9999 26.8538 49.2806 23.8737 47.9832 21.2276H38.2593V21.2404Z" fill="#D90202"/>
</svg>
